<svg width="19" height="19" viewBox="0 0 19 19" fill="none" xmlns="http://www.w3.org/2000/svg">
<g clip-path="url(#clip0_2_344)">
<path fill-rule="evenodd" clip-rule="evenodd" d="M16.3521 10.9606C16.9823 11.5759 17.6476 12.1548 18.2128 12.8322C18.4625 13.1332 18.6989 13.4439 18.8798 13.7932C19.136 14.2898 18.9039 14.8363 18.4587 14.8659L15.6907 14.8647C14.9768 14.9239 14.4073 14.6365 13.9284 14.1484C13.5452 13.7581 13.1903 13.3426 12.8218 12.9391C12.6707 12.7742 12.5126 12.619 12.3237 12.4963C11.9458 12.251 11.6178 12.3261 11.4019 12.7202C11.182 13.1211 11.1321 13.5649 11.1105 14.0116C11.0808 14.6634 10.8838 14.8348 10.2291 14.8646C8.82987 14.9306 7.50194 14.7189 6.26834 14.0131C5.18075 13.3908 4.33737 12.5124 3.60331 11.5178C2.17406 9.58132 1.07954 7.4534 0.0958344 5.26587C-0.125591 4.77301 0.0363423 4.50845 0.580136 4.49909C1.48313 4.48154 2.386 4.48279 3.29005 4.49784C3.65706 4.50321 3.90002 4.71371 4.04172 5.06042C4.53027 6.26169 5.12806 7.40459 5.87842 8.46396C6.07825 8.746 6.28201 9.02804 6.57217 9.22656C6.89316 9.44636 7.13756 9.37351 7.28857 9.01593C7.38439 8.7892 7.42634 8.54499 7.44794 8.30215C7.51948 7.4667 7.52891 6.63269 7.40343 5.80017C7.3264 5.2806 7.03374 4.94425 6.5153 4.84593C6.25073 4.7958 6.29012 4.69735 6.41822 4.54634C6.64071 4.2859 6.84996 4.12378 7.26709 4.12378H10.3953C10.8878 4.22098 10.9972 4.44222 11.0646 4.93775L11.0673 8.41258C11.0619 8.60442 11.1631 9.17368 11.5086 9.30065C11.7852 9.39105 11.9675 9.16981 12.1334 8.99445C12.8824 8.19952 13.4169 7.26007 13.8945 6.28728C14.1064 5.85954 14.2887 5.41531 14.4653 4.97146C14.5961 4.6421 14.8014 4.48005 15.1724 4.48722L18.1832 4.48991C18.2724 4.48991 18.3628 4.49122 18.4492 4.50601C18.9566 4.59247 19.0956 4.81072 18.9389 5.30613C18.692 6.0834 18.2116 6.73113 17.7419 7.38186C17.2398 8.0766 16.7029 8.74756 16.2049 9.44642C15.7475 10.0846 15.7838 10.4063 16.3521 10.9606Z" fill="#597DA3"/>
</g>
<defs>
<clipPath id="clip0_2_344">
<rect width="19" height="19" fill="white"/>
</clipPath>
</defs>
</svg>
