<svg width="18" height="18" viewBox="0 0 18 18" fill="none" xmlns="http://www.w3.org/2000/svg">
<path d="M17.2984 3.75357C16.6487 2.9812 15.4491 2.66614 13.1581 2.66614H4.84177C2.49834 2.66614 1.27841 3.00152 0.631103 3.82383C0 4.62558 0 5.80691 0 7.44189V10.5582C0 13.7256 0.7488 15.3338 4.84177 15.3338H13.1581C15.1449 15.3338 16.2458 15.0558 16.958 14.3742C17.6884 13.6752 18 12.534 18 10.5582V7.44189C18 5.71766 17.9512 4.52937 17.2984 3.75357ZM11.5561 9.43025L7.77966 11.4039C7.69523 11.448 7.60291 11.4699 7.5107 11.4699C7.4063 11.4699 7.30214 11.4418 7.20987 11.386C7.03614 11.2807 6.93006 11.0924 6.93006 10.8893V6.95461C6.93006 6.75185 7.03585 6.56372 7.20923 6.45839C7.38267 6.35306 7.59838 6.34586 7.77832 6.43934L11.5547 8.4003C11.7469 8.50005 11.8675 8.6984 11.8678 8.91481C11.868 9.13139 11.7479 9.33003 11.5561 9.43025Z" fill="#C4302B"/>
</svg>
